<svg xmlns="http://www.w3.org/2000/svg" viewBox="0 0 220 220" role="img" aria-label="Heart lock icon">
  <defs>
    <clipPath id="heart-clip">
      <path d="M110 197c-7 0-14-2-19-7L41 143C26 128 18 109 18 90c0-27 19-47 45-47 19 0 33 10 47 28 14-18 28-28 47-28 26 0 45 20 45 47 0 19-8 38-23 53l-50 47c-5 5-12 7-19 7z"/>
    </clipPath>
  </defs>

  <path d="M110 197c-7 0-14-2-19-7L41 143C26 128 18 109 18 90c0-27 19-47 45-47 19 0 33 10 47 28 14-18 28-28 47-28 26 0 45 20 45 47 0 19-8 38-23 53l-50 47c-5 5-12 7-19 7z" fill="#f05a4d" stroke="#4a1031" stroke-width="10" stroke-linejoin="round"/>

  <g clip-path="url(#heart-clip)" stroke="#4a1031" stroke-width="4" stroke-linecap="round" opacity="0.7">
    <line x1="36" y1="65" x2="108" y2="143"/>
    <line x1="64" y1="42" x2="149" y2="133"/>
    <line x1="100" y1="34" x2="188" y2="125"/>
    <line x1="44" y1="104" x2="119" y2="180"/>
    <line x1="84" y1="92" x2="167" y2="176"/>
  </g>

  <g fill="#4a1031">
    <ellipse cx="58" cy="98" rx="5" ry="9" transform="rotate(30 58 98)"/>
    <ellipse cx="64" cy="112" rx="4" ry="7" transform="rotate(-18 64 112)"/>
    <ellipse cx="156" cy="96" rx="6" ry="10" transform="rotate(-28 156 96)"/>
    <ellipse cx="164" cy="112" rx="5" ry="8" transform="rotate(20 164 112)"/>
  </g>
</svg>
